<svg width="41" height="37" viewBox="0 0 41 37" fill="none" xmlns="http://www.w3.org/2000/svg">
<path d="M11.8157 36.1697C15.0836 36.2791 18.3402 35.7322 21.3932 34.5615C24.4462 33.3908 27.2335 31.62 29.5905 29.3537C31.9474 27.0874 33.8261 24.3716 35.1156 21.3669C36.4051 18.3621 37.0792 15.1294 37.0981 11.8597C38.5957 10.0064 39.7077 7.8725 40.3689 5.58332C40.4182 5.40245 40.4142 5.21118 40.3574 5.03253C40.3005 4.85388 40.1933 4.69546 40.0485 4.57637C39.9037 4.45727 39.7276 4.38256 39.5413 4.36125C39.3551 4.33993 39.1666 4.37291 38.9987 4.45622C38.2152 4.83336 37.3331 4.95519 36.4767 4.80453C35.6203 4.65387 34.8328 4.23832 34.2251 3.61642C33.4492 2.76685 32.5108 2.08164 31.4653 1.6014C30.4198 1.12116 29.2886 0.855657 28.1386 0.820622C26.9886 0.785587 25.8433 0.981734 24.7705 1.39744C23.6978 1.81314 22.7193 2.43995 21.8933 3.24072C20.7622 4.33612 19.9337 5.70551 19.4884 7.21579C19.043 8.72607 18.996 10.3259 19.3518 11.8597C11.9483 12.3017 6.86525 8.78782 2.79885 3.97002C2.67669 3.83167 2.51689 3.7319 2.33896 3.68287C2.16103 3.63385 1.97267 3.63769 1.79689 3.69394C1.62112 3.75019 1.46552 3.85641 1.34911 3.99962C1.23269 4.14284 1.1605 4.31685 1.14135 4.50042C0.366681 8.79759 0.925501 13.2289 2.74276 17.1992C4.56002 21.1695 7.54868 24.4887 11.3074 26.7109C8.78715 29.6012 5.24799 31.4064 1.42865 31.7497C1.22403 31.7836 1.03514 31.8807 0.888422 32.0273C0.741699 32.1739 0.644486 32.3627 0.610387 32.5673C0.576289 32.7719 0.607012 32.982 0.698256 33.1683C0.789501 33.3546 0.9367 33.5077 1.11925 33.6061C4.44203 35.2666 8.10115 36.1436 11.8157 36.1697Z" fill="white"/>
</svg>
